<?xml version="1.0" encoding="iso-8859-1"?>
<!-- Generator: Adobe Illustrator 19.0.0, SVG Export Plug-In . SVG Version: 6.00 Build 0)  -->
<svg version="1.1" id="Capa_1" xmlns="http://www.w3.org/2000/svg" xmlns:xlink="http://www.w3.org/1999/xlink" x="0px" y="0px"
	 viewBox="0 0 512 512" style="enable-background:new 0 0 512 512;" xml:space="preserve">
<g>
	<g>
		<g>
			<path d="M352,85.333c5.896,0,10.667-4.771,10.667-10.667V53.333c0-5.896-4.771-10.667-10.667-10.667
				c-5.896,0-10.667,4.771-10.667,10.667v21.333C341.333,80.563,346.104,85.333,352,85.333z"/>
			<path d="M384,96c2.729,0,5.458-1.042,7.542-3.125l10.667-10.667c4.167-4.167,4.167-10.917,0-15.083
				c-4.167-4.167-10.917-4.167-15.083,0l-10.667,10.667c-4.167,4.167-4.167,10.917,0,15.083C378.542,94.958,381.271,96,384,96z"/>
			<path d="M312.458,92.875C314.542,94.958,317.271,96,320,96s5.458-1.042,7.542-3.125c4.167-4.167,4.167-10.917,0-15.083
				l-10.667-10.667c-4.167-4.167-10.917-4.167-15.083,0c-4.167,4.167-4.167,10.917,0,15.083L312.458,92.875z"/>
			<path d="M117.333,202.667h21.333V224c0,5.896,4.771,10.667,10.667,10.667c5.896,0,10.667-4.771,10.667-10.667v-21.333h21.333
				c5.896,0,10.667-4.771,10.667-10.667s-4.771-10.667-10.667-10.667H160V160c0-5.896-4.771-10.667-10.667-10.667
				c-5.896,0-10.667,4.771-10.667,10.667v21.333h-21.333c-5.896,0-10.667,4.771-10.667,10.667S111.438,202.667,117.333,202.667z"/>
			<path d="M508.875,259.125L402.208,152.458c-2-2-4.708-3.125-7.542-3.125H384v-10.667c0-17.646-14.354-32-32-32
				c-17.646,0-32,14.354-32,32v10.667h-21.333v-10.667V96c0-5.896-4.771-10.667-10.667-10.667H42.667C19.135,85.333,0,104.469,0,128
				v266.667c0,17.646,14.354,32,32,32h25.266c8.835,24.779,32.293,42.667,60.068,42.667c27.775,0,51.234-17.888,60.069-42.667
				h157.197c8.835,24.779,32.293,42.667,60.068,42.667s51.234-17.888,60.069-42.667h14.598C492.865,426.667,512,407.531,512,384
				V266.667C512,263.833,510.875,261.125,508.875,259.125z M117.333,448c-23.531,0-42.667-19.135-42.667-42.667
				s19.135-42.667,42.667-42.667S160,381.802,160,405.333S140.865,448,117.333,448z M277.333,405.333h-96c0-35.292-28.708-64-64-64
				c-35.292,0-64,28.708-64,64H32c-5.885,0-10.667-4.781-10.667-10.667v-96h256V405.333z M277.333,138.667V160v117.333h-256V128
				c0-11.76,9.573-21.333,21.333-21.333h234.667V138.667z M341.333,138.667c0-5.885,4.781-10.667,10.667-10.667
				c5.885,0,10.667,4.781,10.667,10.667v10.667h-21.333V138.667z M394.667,448C371.135,448,352,428.865,352,405.333
				s19.135-42.667,42.667-42.667s42.667,19.135,42.667,42.667S418.198,448,394.667,448z M490.667,384
				c0,11.76-9.573,21.333-21.333,21.333h-10.667c0-35.292-28.708-64-64-64s-64,28.708-64,64h-32V170.667h91.583l100.417,100.417V384
				z"/>
			<path d="M362.667,202.667c0-5.896-4.771-10.667-10.667-10.667c-5.896,0-10.667,4.771-10.667,10.667V288
				c0,5.896,4.771,10.667,10.667,10.667h106.667c5.896,0,10.667-4.771,10.667-10.667s-4.771-10.667-10.667-10.667h-96V202.667z"/>
		</g>
	</g>
</g>
<g>
</g>
<g>
</g>
<g>
</g>
<g>
</g>
<g>
</g>
<g>
</g>
<g>
</g>
<g>
</g>
<g>
</g>
<g>
</g>
<g>
</g>
<g>
</g>
<g>
</g>
<g>
</g>
<g>
</g>
</svg>
