<svg id="home-connection" enable-background="new 0 0 300 300" height="512" viewBox="0 0 300 300" width="512" xmlns="http://www.w3.org/2000/svg"><g><path d="m214.121 108.841-64-40c-1.297-.809-2.945-.809-4.242 0l-64 40c-1.168.732-1.879 2.014-1.879 3.393v28.782l-38.121 23.826c-1.168.732-1.879 2.014-1.879 3.393v96c0 2.209 1.789 4 4 4h128c2.211 0 4-1.791 4-4v-52h36c2.211 0 4-1.791 4-4v-96c0-1.381-.711-2.662-1.879-3.394zm-46.121 151.392h-120v-89.783l60-37.5 60 37.5zm40-56h-32v-36c0-1.379-.711-2.66-1.879-3.393l-64-40c-1.297-.809-2.945-.809-4.242 0l-17.879 11.175v-21.565l60-37.5 60 37.5z"/><path d="m193.844 39.767h.008c10.523 0 20.418 4.1 27.863 11.543s11.543 17.342 11.543 27.869c0 2.209 1.789 4 4 4s4-1.791 4-4c0-12.664-4.93-24.57-13.887-33.525-8.953-8.955-20.859-13.887-33.52-13.887-.004 0-.008 0-.008 0-2.211 0-4 1.791-4 4s1.794 4 4.001 4z"/><path d="m193.844 47.265c-2.211 0-4 1.791-4 4s1.789 4 4 4c6.391 0 12.395 2.488 16.91 7.004s7.004 10.521 7.004 16.91c0 2.209 1.789 4 4 4s4-1.791 4-4c0-8.527-3.32-16.541-9.348-22.566-6.023-6.028-14.039-9.348-22.566-9.348z"/><path d="m199.5 73.522c1.512 1.512 2.344 3.521 2.344 5.656 0 2.209 1.789 4 4 4s4-1.791 4-4c0-4.273-1.664-8.291-4.688-11.312-3.023-3.023-7.039-4.688-11.312-4.688-2.211 0-4 1.791-4 4s1.789 4 4 4c2.136.001 4.144.833 5.656 2.344z"/><path d="m60 88.233c2.211 0 4-1.791 4-4v-8c0-2.209-1.789-4-4-4s-4 1.791-4 4v8c0 2.209 1.789 4 4 4z"/><path d="m60 96.233c-2.211 0-4 1.791-4 4v8c0 2.209 1.789 4 4 4s4-1.791 4-4v-8c0-2.209-1.789-4-4-4z"/><path d="m44 96.233h8c2.211 0 4-1.791 4-4s-1.789-4-4-4h-8c-2.211 0-4 1.791-4 4s1.789 4 4 4z"/><path d="m68 96.233h8c2.211 0 4-1.791 4-4s-1.789-4-4-4h-8c-2.211 0-4 1.791-4 4s1.789 4 4 4z"/><path d="m108.524 53.364c2.362 0 4.277-1.915 4.277-4.276s-1.915-4.277-4.277-4.277-4.276 1.915-4.276 4.277 1.915 4.276 4.276 4.276z"/><path d="m244.524 244.811c-2.362 0-4.276 1.915-4.276 4.277s1.915 4.276 4.276 4.276 4.277-1.915 4.277-4.276-1.915-4.277-4.277-4.277z"/><path d="m246 172.233c-7.719 0-14 6.281-14 14s6.281 14 14 14 14-6.281 14-14-6.281-14-14-14zm0 20c-3.309 0-6-2.691-6-6s2.691-6 6-6 6 2.691 6 6-2.691 6-6 6z"/><path d="m96 192.233v8h-4c-2.211 0-4 1.791-4 4v28c0 2.209 1.789 4 4 4h32c2.211 0 4-1.791 4-4v-28c0-2.209-1.789-4-4-4h-4v-8c0-6.617-5.383-12-12-12s-12 5.383-12 12zm24 36h-24v-20h4 16 4zm-8-36v8h-8v-8c0-2.205 1.793-4 4-4s4 1.795 4 4z"/><path d="m108 212.233c-2.211 0-4 1.791-4 4v4c0 2.209 1.789 4 4 4s4-1.791 4-4v-4c0-2.209-1.789-4-4-4z"/></g></svg>