<svg id="dial-911" enable-background="new 0 0 300 300" height="512" viewBox="0 0 300 300" width="512" xmlns="http://www.w3.org/2000/svg"><g><path d="m250.735 146.362c0 2.362 1.915 4.276 4.276 4.276s4.276-1.915 4.276-4.276-1.915-4.277-4.276-4.277-4.276 1.915-4.276 4.277z"/><path d="m250.688 57.391c7.719 0 14-6.281 14-14s-6.281-14-14-14-14 6.281-14 14 6.281 14 14 14zm0-20c3.309 0 6 2.691 6 6s-2.691 6-6 6-6-2.691-6-6 2.691-6 6-6z"/><path d="m93.693 46.594c2.362 0 4.277-1.915 4.277-4.276s-1.915-4.277-4.277-4.277-4.276 1.915-4.276 4.277 1.914 4.276 4.276 4.276z"/><path d="m48.688 97.391c2.211 0 4-1.791 4-4v-8c0-2.209-1.789-4-4-4s-4 1.791-4 4v8c0 2.209 1.789 4 4 4z"/><path d="m48.688 105.391c-2.211 0-4 1.791-4 4v8c0 2.209 1.789 4 4 4s4-1.791 4-4v-8c0-2.209-1.79-4-4-4z"/><path d="m40.688 97.391h-8c-2.211 0-4 1.791-4 4s1.789 4 4 4h8c2.211 0 4-1.791 4-4s-1.79-4-4-4z"/><path d="m64.688 97.391h-8c-2.211 0-4 1.791-4 4s1.789 4 4 4h8c2.211 0 4-1.791 4-4s-1.79-4-4-4z"/><path d="m158.219 105.695c-1.496-.615-3.215-.279-4.359.867l-12 12c-1.562 1.562-1.562 4.094 0 5.656s4.094 1.562 5.656 0l5.172-5.172v26.344c0 2.209 1.789 4 4 4s4-1.791 4-4v-36c0-1.617-.973-3.076-2.469-3.695z"/><path d="m186.219 105.695c-1.496-.615-3.215-.279-4.359.867l-12 12c-1.562 1.562-1.562 4.094 0 5.656s4.094 1.562 5.656 0l5.172-5.172v26.344c0 2.209 1.789 4 4 4s4-1.791 4-4v-36c0-1.617-.973-3.076-2.469-3.695z"/><path d="m118.688 105.391c-7.719 0-14 6.281-14 14s6.281 14 14 14c2.009 0 3.91-.443 5.639-1.208-1.267 5.269-5.987 9.208-11.639 9.208-2.211 0-4 1.791-4 4s1.789 4 4 4c11.027 0 20-8.973 20-20v-12c0-.793-.29-1.489-.688-2.111-1.769-5.706-7.034-9.889-13.312-9.889zm0 20c-3.309 0-6-2.691-6-6s2.691-6 6-6 6 2.691 6 6-2.692 6-6 6z"/><path d="m270.141 232.805-2.523-2.527c-2.125-2.123-3.668-4.727-4.465-7.525-2.234-7.912-4.918-13.475-7.977-16.529l-20.164-20.164c-6.242-6.248-15.754-7.787-23.652-3.84l-2.672 1.336v-113.443c0-9.221-7.5-16.723-16.723-16.723h-86.555c-9.223 0-16.723 7.502-16.723 16.723v174.555c0 9.221 7.5 16.723 16.723 16.723h86.555c5.072 0 9.825-2.376 12.966-6.229 3.323 2.122 6.979 3.689 10.901 4.474l3.516.703c4.145.828 7.91 2.846 10.898 5.832l3.266 3.268c.75.75 1.766 1.172 2.828 1.172s2.078-.422 2.828-1.172l30.973-30.977c1.562-1.564 1.562-4.095 0-5.657zm-76.547-41.703-18.312-18.311c-3.161-3.158-7.621-4.174-11.664-3.143-3.778-2.759-8.219-4.258-12.93-4.258-12.129 0-22 9.869-22 22s9.871 22 22 22c7.027 0 13.564-3.444 17.668-8.982l11.152 11.152c-3.348.691-6.422 2.342-8.891 4.812-1.562 1.562-1.562 4.094 0 5.656l11.361 11.361h-85.29v-148h104v102.164zm-35.586-1.04 4.609 4.609c-2.526 4.115-7.048 6.719-11.93 6.719-7.719 0-14-6.281-14-14s6.281-14 14-14c2.033 0 3.977.469 5.777 1.29-3.143 4.741-2.63 11.208 1.544 15.382zm-52.598-128.671h86.555c4.809 0 8.723 3.912 8.723 8.723v7.277h-104v-7.277c0-4.811 3.914-8.723 8.722-8.723zm86.555 192h-86.555c-4.809 0-8.723-3.912-8.723-8.723v-3.277h93.291l8.727 8.727c-1.638 2.012-4.094 3.273-6.74 3.273zm44.375 7.56-.438-.438c-4.105-4.107-9.289-6.881-14.984-8.02l-3.516-.703c-4.672-.934-8.918-3.207-12.285-6.574l-25.406-25.408c3.41-1.295 7.59-.453 10.266 2.221l7.742 7.744c1.562 1.562 4.094 1.562 5.656 0 1.562-1.561 1.562-4.094 0-5.656l-7.742-7.744c-.227-.227-.457-.445-.691-.656-.094-.115-.191-.229-.301-.336l-30.977-30.975c-1.641-1.643-1.641-4.316 0-5.959 1.641-1.645 4.32-1.641 5.961 0l20.352 20.35c1.223 1.219 3.082 1.516 4.617.75l20.344-10.172c4.816-2.412 10.609-1.463 14.418 2.34l20.164 20.166c1.992 1.988 4.156 6.744 5.938 13.051 1.129 3.979 3.27 7.67 6.203 10.697z"/></g></svg>