<?xml version="1.0" encoding="iso-8859-1"?>
<!-- Generator: Adobe Illustrator 19.0.0, SVG Export Plug-In . SVG Version: 6.00 Build 0)  -->
<svg version="1.1" id="Capa_1" xmlns="http://www.w3.org/2000/svg" xmlns:xlink="http://www.w3.org/1999/xlink" x="0px" y="0px"
	 viewBox="0 0 512.001 512.001" style="enable-background:new 0 0 512.001 512.001;" xml:space="preserve">
<g>
	<g>
		<path d="M404.011,241.473l-50.9-29.087c-4.934-2.82-10.722-3.756-16.29-2.643l-26.515,5.303
			c-0.874-9.686-2.182-19.066-3.903-27.966l19.857-9.929c1.799-0.899,3.867-1.134,5.819-0.663l52.423,12.654
			c4.025,0.975,8.079-1.504,9.051-5.531c0.972-4.026-1.505-8.079-5.531-9.05l-52.424-12.654c-5.385-1.3-11.086-0.651-16.046,1.828
			l-16.577,8.289c-1.111-4.201-2.329-8.242-3.639-12.12c2.65-3.333,4.246-7.541,4.246-12.121c0-1.654-0.229-3.251-0.618-4.786
			l63.575-24.452c16.593-6.382,26.941-23.25,25.165-41.02c-2.083-20.843-9.709-50.831-34.206-75.328
			c-2.93-2.929-7.678-2.929-10.607,0c-2.929,2.929-2.929,7.678,0,10.606c11.075,11.074,18.258,23.282,22.751,35.482
			c3.026,8.214,2.415,17.184-2.524,20.004c-5.028,2.874-14.365,0.295-24.001-11.829c-6.211-13.406-14.567-27.1-25.699-38.232
			c-2.93-2.929-7.678-2.929-10.607,0c-2.929,2.929-2.929,7.678,0,10.606c26.758,26.757,35.975,72.499,37.66,82.126l-51.112,19.659
			c-2.767-1.505-5.936-2.362-9.302-2.362c-0.194,0-0.381,0.023-0.573,0.029c-10.19-13.202-20.491-16.062-27.483-16.062
			c-7.003,0-17.299,2.866-27.485,16.062c-0.192-0.006-0.379-0.029-0.572-0.029c-3.365,0-6.535,0.856-9.302,2.362l-51.114-19.659
			c1.671-9.609,10.83-55.293,37.662-82.125c2.929-2.929,2.929-7.678,0-10.606c-2.93-2.929-7.678-2.929-10.607,0
			c-11.132,11.132-19.488,24.826-25.698,38.232c-9.639,12.125-18.974,14.701-24.002,11.829c-4.938-2.82-4.445-12.79-2.524-20.004
			c3.297-12.379,11.677-24.408,22.751-35.482c2.929-2.929,2.929-7.678,0-10.606c-2.93-2.929-7.678-2.929-10.607,0
			c-24.497,24.497-32.123,54.485-34.206,75.328c-1.776,17.771,8.572,34.638,25.165,41.02l63.575,24.452
			c-0.389,1.534-0.618,3.132-0.618,4.786c0,4.578,1.595,8.785,4.244,12.118c-1.311,3.878-2.523,7.925-3.634,12.124l-16.582-8.291
			c-4.959-2.479-10.656-3.129-16.046-1.827l-52.423,12.654c-4.026,0.972-6.503,5.024-5.531,9.05
			c0.972,4.026,5.026,6.508,9.051,5.531l52.422-12.654c1.956-0.471,4.022-0.236,5.819,0.663l19.86,9.93
			c-1.72,8.9-3.031,18.277-3.904,27.965l-26.515-5.303c-5.569-1.112-11.356-0.175-16.29,2.644l-50.9,29.086
			c-3.597,2.055-4.846,6.636-2.791,10.233c1.385,2.422,3.915,3.78,6.519,3.78c1.262,0,2.541-0.319,3.714-0.99l50.9-29.086
			c1.789-1.023,3.887-1.365,5.907-0.958l28.466,5.693c-0.192,4.572-0.301,9.184-0.301,13.831c0,6.292,0.185,12.495,0.53,18.583
			l-14.173-3.542c-8.243-2.065-16.983,0.495-22.817,6.671l-27.626,29.252c-2.844,3.012-2.708,7.758,0.304,10.603
			c1.449,1.368,3.3,2.047,5.148,2.047c1.991,0,3.979-0.788,5.454-2.351l27.625-29.251c2.114-2.24,5.284-3.166,8.272-2.419
			l19.105,4.776c3.954,36.454,14.116,67.108,28.208,83.669c-1.269,3.163-1.975,6.61-1.975,10.221v8.017
			c0,8.336,3.729,15.814,9.599,20.868c-3.484,4.104-5.592,9.411-5.592,15.204v16.032c0,9.225,5.338,17.223,13.086,21.078
			c-4.684,8.886-3.296,20.16,4.17,27.627l5.668,5.668c4.588,4.587,10.614,6.881,16.641,6.881c2.988,0,5.975-0.567,8.787-1.695
			c1.674,11.346,11.473,20.085,23.279,20.085h8.017c11.41,0,20.946-8.164,23.082-18.957c3.517,1.931,7.42,2.914,11.33,2.914
			c6.025,0,12.052-2.294,16.64-6.881l5.669-5.669c8.245-8.246,9.055-21.125,2.481-30.313c7.39-3.973,12.427-11.779,12.427-20.74
			v-8.016c0-10.353-6.724-19.16-16.032-22.3v-41.828c0-4.143-3.357-7.5-7.5-7.5s-7.5,3.357-7.5,7.5v41.829
			c-9.308,3.139-16.032,11.946-16.032,22.3v8.016c0,5.099,1.635,9.82,4.402,13.678c-1.985,1.063-3.852,2.422-5.525,4.094
			l-5.67,5.669c-3.419,3.419-5.56,7.639-6.43,12.061c-3.366-1.859-7.231-2.921-11.341-2.921h-8.017
			c-3.118,0-6.094,0.615-8.819,1.721c-0.708-4.836-2.892-9.496-6.605-13.21l-5.668-5.668c-1.862-1.861-3.967-3.325-6.207-4.431
			c1.743-3.284,2.735-7.024,2.735-10.994v-16.032c0-5.793-2.108-11.099-5.592-15.204c5.871-5.054,9.599-12.532,9.599-20.868v-8.017
			c0-3.609-0.705-7.055-1.973-10.217c14.101-16.568,24.261-47.201,28.211-83.674l19.102-4.776c2.982-0.749,6.155,0.18,8.271,2.419
			l27.626,29.252c1.476,1.563,3.463,2.351,5.454,2.351c1.848,0,3.699-0.679,5.148-2.047c3.012-2.845,3.147-7.591,0.304-10.603
			l-27.627-29.253c-5.834-6.176-14.571-8.734-22.815-6.671l-14.173,3.543c0.345-6.088,0.53-12.29,0.53-18.583
			c0-4.646-0.109-9.258-0.302-13.831l28.467-5.693c2.019-0.406,4.118-0.064,5.907,0.958l50.9,29.086
			c1.174,0.671,2.452,0.99,3.714,0.99c2.604,0,5.135-1.358,6.519-3.78C408.856,248.109,407.607,243.528,404.011,241.473z
			 M362.762,84.377c4.213,0,8.23-1.025,11.794-3.06c0.794-0.453,1.548-0.951,2.269-1.484c0.719,10.763-5.62,20.846-15.671,24.712
			l-2.423,0.932c-0.949-4.984-2.726-13.142-5.691-22.85C356.318,83.792,359.594,84.377,362.762,84.377z M153.27,105.477
			l-2.423-0.932c-10.052-3.866-16.391-13.949-15.672-24.712c0.721,0.532,1.475,1.03,2.269,1.484c3.563,2.035,7.581,3.06,11.794,3.06
			c3.166,0,6.445-0.585,9.722-1.75C155.995,92.335,154.218,100.493,153.27,105.477z M351.678,424.34
			c0-4.705,3.827-8.532,8.532-8.532s8.532,3.827,8.532,8.532v8.016c0,4.705-3.827,8.532-8.532,8.532s-8.532-3.827-8.532-8.532
			V424.34z M340.491,466.403l5.67-5.668c1.663-1.664,3.848-2.495,6.033-2.495s4.369,0.831,6.032,2.495
			c3.327,3.326,3.327,8.739,0,12.065l-5.669,5.669c-3.327,3.328-8.739,3.326-12.066,0l0.001-0.001
			C337.165,475.142,337.166,469.729,340.491,466.403z M304.097,479.936h8.017c4.705,0,8.532,3.827,8.532,8.532
			s-3.828,8.533-8.533,8.533h-8.017c-4.705,0-8.532-3.827-8.532-8.532S299.391,479.936,304.097,479.936z M284.057,143.259
			c2.495,0,4.524,2.029,4.524,4.524s-2.029,4.524-4.524,4.524s-4.524-2.03-4.524-4.524S281.561,143.259,284.057,143.259z
			 M227.943,143.259c2.495,0,4.524,2.029,4.524,4.524s-2.029,4.524-4.524,4.524s-4.524-2.03-4.524-4.524
			S225.448,143.259,227.943,143.259z M226.047,167.21c0.625,0.06,1.256,0.096,1.896,0.096c10.766,0,19.524-8.759,19.524-19.524
			c0-4.957-1.873-9.475-4.928-12.922c3.652-4.072,8.312-7.634,13.461-7.634c5.155,0,9.822,3.576,13.461,7.633
			c-3.056,3.447-4.929,7.965-4.929,12.923c0,10.766,8.759,19.524,19.524,19.524c0.641,0,1.274-0.036,1.9-0.096
			c2.613,8.167,4.774,17.129,6.452,26.656c-11.002-4.197-23.513-6.447-36.416-6.447c-12.882,0-25.399,2.248-36.404,6.44
			C221.265,184.332,223.433,175.379,226.047,167.21z M243.46,380.251v-8.017c0-6.915,5.625-12.54,12.54-12.54
			s12.54,5.625,12.54,12.54v8.017c0,6.915-5.625,12.54-12.54,12.54C249.085,392.791,243.46,387.166,243.46,380.251z
			 M247.468,432.355v-16.032c0-4.705,3.827-8.532,8.532-8.532s8.532,3.827,8.532,8.532v16.032c0,4.705-3.827,8.532-8.532,8.532
			S247.468,437.06,247.468,432.355z M278.065,464.056c3.327,3.326,3.327,8.739,0,12.065c-3.326,3.328-8.74,3.328-12.066,0
			l-5.668-5.668c-3.327-3.326-3.327-8.739,0-12.065c1.663-1.664,3.848-2.495,6.032-2.495c2.186,0,4.37,0.832,6.034,2.495
			L278.065,464.056z M292.236,295.144c-1.008-0.543-2.031-1.066-3.071-1.563c-3.736-1.788-8.214-0.207-10.002,3.529
			c-1.787,3.736-0.207,8.215,3.529,10.002c2.177,1.041,4.249,2.223,6.215,3.509c-4.207,16.549-9.962,30.214-16.82,39.281
			c-4.53-3.272-10.085-5.208-16.087-5.208c-6,0-11.554,1.935-16.083,5.205c-6.852-9.067-12.606-22.729-16.813-39.27
			c9.26-6.066,20.814-9.387,32.913-9.387c4.143,0,7.5-3.357,7.5-7.5s-3.357-7.5-7.5-7.5c-12.974,0-25.522,3.136-36.24,8.933
			c-1.344-7.484-2.401-15.367-3.138-23.534c11.074-5.262,24.876-8.141,39.348-8.141c14.504,0,28.301,2.881,39.378,8.154
			C294.63,279.808,293.575,287.675,292.236,295.144z M296.367,255.77c-11.978-4.717-25.936-7.269-40.381-7.269
			c-14.413,0-28.377,2.545-40.355,7.249c-0.146-3.887-0.228-7.813-0.228-11.773c0-1.476,0.02-2.945,0.04-4.414
			c11.423-5.253,25.637-8.126,40.536-8.126c1.37,0,2.757,0.025,4.121,0.073c4.161,0.153,7.614-3.088,7.763-7.228
			c0.147-4.139-3.088-7.615-7.228-7.762c-1.542-0.055-3.109-0.083-4.656-0.083c-14.176,0-27.936,2.325-39.872,6.653
			c0.265-3.944,0.601-7.84,1.013-11.674c10.837-5.813,24.517-8.996,38.872-8.996c14.383,0,28.05,3.188,38.889,9.011
			c0.412,3.839,0.748,7.74,1.013,11.689c-0.608-0.222-1.208-0.452-1.827-0.663c-3.919-1.337-8.183,0.754-9.521,4.675
			c-1.338,3.92,0.755,8.183,4.675,9.521c2.567,0.876,5.011,1.866,7.336,2.935c0.02,1.46,0.039,2.921,0.039,4.389
			C296.596,247.945,296.513,251.877,296.367,255.77z"/>
	</g>
</g>
<g>
</g>
<g>
</g>
<g>
</g>
<g>
</g>
<g>
</g>
<g>
</g>
<g>
</g>
<g>
</g>
<g>
</g>
<g>
</g>
<g>
</g>
<g>
</g>
<g>
</g>
<g>
</g>
<g>
</g>
</svg>
