<svg height="512pt" viewBox="0 0 512.05377 512" width="512pt" xmlns="http://www.w3.org/2000/svg"><path d="m247.488281 187.761719h13.277344c-3.070313 5.164062-4.707031 11.054687-4.742187 17.066406-.023438 17.164063 12.734374 31.667969 29.765624 33.832031 17.027344 2.167969 33.007813-8.675781 37.289063-25.300781h19.488281c3.21875 12.964844 13.722656 22.847656 26.859375 25.273437 13.136719 2.425782 26.476563-3.054687 34.109375-14.015624 7.636719-10.960938 8.152344-25.375 1.324219-36.855469h13.296875c4.710938 0 8.535156-3.820313 8.535156-8.535157 0-4.710937-3.824218-8.53125-8.535156-8.53125h-11.792969l-20.523437-62.398437c-1.425782-4.339844-6.019532-6.785156-10.417969-5.546875l-56.984375 16.085938-26.242188-15.25c-2.222656-1.289063-4.914062-1.507813-7.316406-.59375-2.40625.914062-4.269531 2.863281-5.074218 5.304687l-20.523438 62.398437h-11.792969c-4.710937 0-8.53125 3.820313-8.53125 8.53125 0 4.714844 3.820313 8.535157 8.53125 8.535157zm42.667969 34.132812c-9.425781 0-17.066406-7.640625-17.066406-17.066406s7.640625-17.066406 17.066406-17.066406 17.066406 7.640625 17.066406 17.066406-7.640625 17.066406-17.066406 17.066406zm29.390625-34.132812h26.554687c-1.566406 2.667969-2.753906 5.539062-3.535156 8.53125h-19.488281c-.777344-2.992188-1.96875-5.863281-3.53125-8.53125zm55.941406 34.132812c-9.425781 0-17.066406-7.640625-17.066406-17.066406s7.640625-17.066406 17.066406-17.066406 17.066407 7.640625 17.066407 17.066406-7.640626 17.066406-17.066407 17.066406zm-82.773437-98.269531 20.269531 11.773438c1.992187 1.179687 4.378906 1.488281 6.601563.855468l52.59375-14.839844 16.222656 49.28125h-111.15625zm0 0"/><path d="m332.824219.0273438c-44.121094-.0585938-86.6875 16.2890622-119.425781 45.8671872-34.449219-43.953125-94.761719-58.160156-145.203126-34.203125-50.445312 23.957032-77.546874 79.679688-65.253906 134.152344 12.296875 54.472656 60.703125 93.148438 116.546875 93.117188 14.398438-.023438 28.671875-2.671876 42.121094-7.816407 7.613281 25.457031 20.800781 48.898438 38.605469 68.625l-34.773438 34.765625-11.035156-11.035156c-3.332031-3.332031-8.730469-3.332031-12.066406 0l-139.816406 139.828125c-3.332032 3.332031-3.332032 8.734375 0 12.066406l34.132812 34.132813c3.332031 3.332031 8.734375 3.332031 12.066406 0l139.820313-139.820313c3.328125-3.332031 3.328125-8.734375 0-12.066406l-11.027344-11.03125 34.78125-34.78125c59.238281 53.847656 147.003906 61.875 215.023437 19.667969 68.023438-42.210938 99.800782-124.414063 77.851563-201.398438-21.949219-76.988281-92.296875-130.0781248-172.347656-130.0703122zm-184.449219 341.5820312 22.066406 22.066406-8.285156 8.285157-22.066406-22.066407zm-105.683594 149.816406-22.070312-22.066406 107.402344-107.398437 22.066406 22.066406zm193.78125-396.175781c39.28125-45.199219 104.652344-57.121094 157.363282-28.703125 52.707031 28.421875 78.667968 89.589844 62.492187 147.246094-16.179687 57.65625-70.167969 96.390625-129.96875 93.242187-59.800781-3.144531-109.429687-47.335937-119.464844-106.371094 26.40625-28.242187 37.4375-67.558593 29.578125-105.414062zm-219.382812 24.242188c0-56.550782 45.847656-102.398438 102.398437-102.398438 56.554688 0 102.402344 45.847656 102.402344 102.398438 0 56.554687-45.847656 102.402343-102.402344 102.402343-56.527343-.0625-102.335937-45.871093-102.398437-102.402343zm315.734375 221.867187c-72.277344.101563-135.816407-47.855469-155.53125-117.390625 5.210937-2.925781 10.195312-6.234375 14.910156-9.898438 15.867187 63.863282 72.761719 109.027344 138.5625 109.988282 65.800781.960937 123.992187-42.527344 141.714844-105.902344 17.722656-63.375-9.46875-130.738281-66.222657-164.050781-56.753906-33.3125-128.824218-24.210938-175.519531 22.160156-2.152343-5.550781-4.722656-10.929687-7.679687-16.09375 53.332031-49.183594 132.855468-56.925781 194.671875-18.960937 61.820312 37.96875 90.875 112.398437 71.125 182.207031-19.746094 69.808593-83.484375 117.984375-156.03125 117.941406zm0 0"/><path d="m119.488281 153.628906c-14.136719 0-25.597656 11.460938-25.597656 25.597656 0 14.140626 11.460937 25.601563 25.597656 25.601563 14.140625 0 25.601563-11.460937 25.601563-25.601563 0-14.136718-11.460938-25.597656-25.601563-25.597656zm0 34.132813c-4.710937 0-8.53125-3.820313-8.53125-8.535157 0-4.710937 3.820313-8.53125 8.53125-8.53125 4.714844 0 8.535157 3.820313 8.535157 8.53125 0 4.714844-3.820313 8.535157-8.535157 8.535157zm0 0"/><path d="m126.246094 34.160156h-13.515625c-7.453125-.054687-14.582031 3.046875-19.625 8.535156-4.460938 4.84375-6.636719 11.367188-5.972657 17.917969l5.410157 54.152344c1.613281 12.734375 12.628906 22.164063 25.460937 21.792969h2.96875c12.84375.386718 23.875-9.046875 25.492188-21.792969l5.453125-54.152344c.660156-6.550781-1.515625-13.074219-5.976563-17.917969-5.058594-5.507812-12.214844-8.609374-19.695312-8.535156zm3.226562 78.90625c-.824218 3.984375-4.476562 6.734375-8.53125 6.425782h-2.972656c-4.054688.308593-7.707031-2.441407-8.53125-6.425782l-5.308594-54.160156c-.140625-1.761719.480469-3.503906 1.707032-4.777344 1.796874-1.882812 4.292968-2.933594 6.894531-2.902344h13.515625c2.625-.046874 5.152344 1.003907 6.964844 2.902344 1.226562 1.273438 1.851562 3.015625 1.707031 4.777344zm0 0"/></svg>