<svg height="512pt" viewBox="0 -81 512.001 512" width="512pt" xmlns="http://www.w3.org/2000/svg"><path d="m406.644531 204.992188h-20.347656c-4.144531 0-7.5 3.359374-7.5 7.5 0 4.144531 3.355469 7.5 7.5 7.5h20.347656c4.140625 0 7.5-3.355469 7.5-7.5 0-4.140626-3.359375-7.5-7.5-7.5zm0 0"/><path d="m489.644531 96.980469c-5.027343-12.089844-16.734375-19.902344-29.828125-19.902344h-8.6875v-12.972656c0-16.984375-13.820312-30.808594-30.808594-30.808594-16.988281 0-30.804687 13.820313-30.804687 30.808594v12.972656h-28.195313c-10.230468 0-18.554687 8.324219-18.554687 18.554687v67.5625h-22.027344v-85.105468c0-10.621094-8.640625-19.257813-19.257812-19.257813h-215.425781v-12.238281h257.003906c6.457031 0 11.707031-5.25 11.707031-11.707031v-4.089844h24.191406c4.140625 0 7.5-3.355469 7.5-7.5 0-4.140625-3.359375-7.5-7.5-7.5h-24.191406v-4.089844c0-6.457031-5.25-11.707031-11.707031-11.707031h-331.351563c-6.457031 0-11.707031 5.25-11.707031 11.707031v23.179688c0 6.457031 5.25 11.707031 11.707031 11.707031h15.5625v12.238281h-8.011719c-10.617187 0-19.257812 8.636719-19.257812 19.257813v213.738281c0 11.410156 9.28125 20.6875 20.6875 20.6875h20.324219c4.238281 21.1875 22.980469 37.199219 45.394531 37.199219s41.15625-16.011719 45.394531-37.199219h233.636719c4.242188 21.1875 22.984375 37.199219 45.398438 37.199219 22.414062 0 41.15625-16.011719 45.394531-37.199219h35.082031c11.410156 0 20.6875-9.277344 20.6875-20.6875v-134.632813c0-10.871093-3.59375-13.273437-22.355469-60.214843zm7.355469 151.046875h-2.75c-10.078125 0-18.277344-8.199219-18.277344-18.277344.230469-3.140625-.585937-5.253906.859375-5.253906h20.167969zm-92.484375-183.921875c0-8.714844 7.089844-15.808594 15.804687-15.808594 8.714844 0 15.808594 7.09375 15.808594 15.808594v12.972656h-31.613281zm-61.75 114.089843v46.339844h-22.027344v-46.339844zm-327.765625-163.195312h324.765625v16.59375h-324.765625zm27.269531 31.59375h28.785157v12.238281h-28.785157zm-23.011719 27.238281h195.941407v15.703125c0 4.140625 3.359375 7.5 7.5 7.5 4.144531 0 7.5-3.359375 7.5-7.5v-15.703125h45.515625v104.433594c0 4.140625 3.359375 7.5 7.5 7.5s7.5-3.359375 7.5-7.5v-104.433594h10.765625c2.347656 0 4.257812 1.910157 4.257812 4.257813v146.445312h-15.023437v-16.246094c0-4.144531-3.355469-7.5-7.5-7.5-4.140625 0-7.5 3.355469-7.5 7.5v16.246094h-45.511719v-104.46875c0-4.144531-3.359375-7.5-7.5-7.5-4.144531 0-7.5 3.355469-7.5 7.5v104.46875h-200.203125v-41.449218h173.472656c4.144532 0 7.5-3.359376 7.5-7.5 0-4.140626-3.355468-7.5-7.5-7.5h-30.902344v-37.808594h30.902344c4.144532 0 7.5-3.355469 7.5-7.5 0-4.140625-3.355468-7.5-7.5-7.5h-173.472656v-37.1875c0-2.347656 1.910156-4.257813 4.257812-4.257813zm51.949219 56.445313v37.808594h-20.683593v-37.808594zm35.679688 0v37.808594h-20.679688v-37.808594zm35.683593 0v37.808594h-20.683593v-37.808594zm-107.046874 37.808594h-20.523438v-37.808594h20.523438zm-20.523438 123.742187v-52.292969h327.765625v57.980469h-210.449219c-2.910156-22.75-22.378906-40.398437-45.910156-40.398437s-43 17.648437-45.910156 40.398437h-19.808594c-3.136719 0-5.6875-2.550781-5.6875-5.6875zm71.40625 42.886719c-17.257812 0-31.300781-14.039063-31.300781-31.296875 0-17.257813 14.042969-31.300781 31.300781-31.300781s31.296875 14.042968 31.296875 31.300781c0 17.257812-14.039063 31.296875-31.296875 31.296875zm324.429688 0c-17.261719 0-31.300782-14.039063-31.300782-31.296875 0-17.257813 14.039063-31.300781 31.300782-31.300781 17.257812 0 31.296874 14.042968 31.296874 31.300781 0 17.257812-14.039062 31.296875-31.296874 31.296875zm80.476562-37.199219h-34.570312c-2.90625-22.75-22.378907-40.398437-45.90625-40.398437-23.53125 0-43.003907 17.648437-45.910157 40.398437h-7.160156v-201.882813c0-1.960937 1.59375-3.554687 3.554687-3.554687h98.496094c7.011719 0 13.285156 4.183594 15.976563 10.660156 20.003906 49.207031 21.207031 48.425781 21.207031 54.457031v52.300782h-20.167969c-8.746093 0-15.859375 7.117187-15.859375 15.863281v4.390625c0 18.347656 14.925782 33.277344 33.277344 33.277344h2.75v28.800781c0 3.136719-2.550781 5.6875-5.6875 5.6875zm0 0"/><path d="m410.835938 282.386719c-11.597657 0-21.03125 9.433593-21.03125 21.03125 0 11.59375 9.433593 21.027343 21.03125 21.027343 11.59375 0 21.027343-9.433593 21.027343-21.027343 0-11.597657-9.433593-21.03125-21.027343-21.03125zm0 27.058593c-3.324219 0-6.03125-2.703124-6.03125-6.027343 0-3.328125 2.707031-6.03125 6.03125-6.03125 3.324218 0 6.027343 2.707031 6.027343 6.03125s-2.703125 6.027343-6.027343 6.027343zm0 0"/><path d="m86.40625 282.386719c-11.597656 0-21.027344 9.433593-21.027344 21.03125 0 11.59375 9.433594 21.027343 21.027344 21.027343s21.027344-9.433593 21.027344-21.027343c0-11.597657-9.433594-21.03125-21.027344-21.03125zm0 27.058593c-3.324219 0-6.027344-2.703124-6.027344-6.027343 0-3.328125 2.703125-6.03125 6.027344-6.03125s6.027344 2.707031 6.027344 6.03125-2.703125 6.027343-6.027344 6.027343zm0 0"/><path d="m475.972656 172.675781v-11.71875c0-5.242187-1.453125-5.59375-14.773437-38.542969-2.351563-5.65625-7.828125-9.308593-13.953125-9.308593h-53.339844c-8.332031 0-15.109375 6.777343-15.109375 15.109375v44.457031c0 8.335937 6.777344 15.113281 15.109375 15.113281h66.953125c8.332031 0 15.113281-6.777344 15.113281-15.109375zm-15.113281.109375c-69.71875-.050781-67.0625.109375-67.0625-.109375.050781-46.308593-.109375-44.566406.109375-44.566406 55.761719.027344 53.390625-.066406 53.445312.066406l13.621094 32.78125c-.050781 12.25.105469 11.828125-.113281 11.828125zm0 0"/></svg>