<svg height="512pt" viewBox="0 -18 512.00057 512" width="512pt" xmlns="http://www.w3.org/2000/svg"><path d="m501.378906 36.898438c-13.5-23.097657-37.796875-36.898438-64.5-36.898438h-361.757812c-26.699219 0-51 13.800781-64.5 36.898438-13.800782 23.101562-14.101563 51-1.199219 74.402343l180.878906 326.097657c13.5 24.300781 38.101563 38.699218 65.699219 38.699218s52.199219-14.398437 65.699219-38.699218l180.882812-326.097657c12.898438-23.402343 12.597657-51.300781-1.203125-74.402343zm0 0" fill="#ff6c6c"/><path d="m502.582031 111.300781-180.882812 326.101563c-13.5 24.300781-38.101563 38.699218-65.699219 38.699218v-476.101562h180.878906c26.703125 0 51 13.800781 64.5 36.898438 13.800782 23.101562 14.101563 51 1.203125 74.402343zm0 0" fill="#ff4949"/><path d="m49.621094 60 206.378906 372.300781 206.378906-372.300781zm0 0" fill="#deecf1"/><path d="m462.378906 60-206.378906 372.300781v-372.300781zm0 0" fill="#c6e2e7"/></svg>